<svg xmlns="http://www.w3.org/2000/svg" viewBox="0 0 43.39 28.35"><defs><style>.cls-1{fill:#1e1e1e;stroke:#1e1e1e;stroke-miterlimit:10;stroke-width:2px;}</style></defs><g id="Layer_2" data-name="Layer 2"><g id="Layer_1-2" data-name="Layer 1"><path class="cls-1" d="M42.32,22.39,41,10.66A2.25,2.25,0,0,0,41,10.3a11.24,11.24,0,0,0-2-4.5,11.89,11.89,0,0,0-5.67-4.14C30.06.51,27.5.94,24.47,2.76h0a3.08,3.08,0,0,1-3.22,0,12.14,12.14,0,0,0-5.05-1.72c-4.27-.46-10,1.1-11,4.71C4.72,7.28,1.07,22.14,1.07,22.14a3.49,3.49,0,0,0,2.75,4.11,3.21,3.21,0,0,0,.68.07A3.5,3.5,0,0,0,7.93,23.5s2.6-13,2.79-13.49c.55-1.52,2.88-2.36,4.72-2,2.37.5,3.44,2,3.29,3.47-.36,3.47-1.08,11.57-1.08,11.57a3.68,3.68,0,0,0,3,4.24,3.25,3.25,0,0,0,.44,0,3.5,3.5,0,0,0,3.45-3l.93-11.65a5.59,5.59,0,0,1,1.75-3.35c1.45-1.28,5.38-1.84,6.45,1.61.17.55,1.81,12.88,1.81,12.88a3.52,3.52,0,0,0,4.8,2.55A3.61,3.61,0,0,0,42.32,22.39Z"/></g></g></svg>